<svg xmlns="http://www.w3.org/2000/svg" height="800" width="1200" viewBox="-6.185094 -2.4832875 53.604148 14.899725"><path d="M41.13634.43843c-.14612-.19478-.29215-.34085-1.02255-.38954-.19476 0-.77907-.0488-1.80162-.0488-2.67807 0-4.52839.82777-5.45356 2.43463C33.10207.82786 31.54393.00009 28.13544.00009c-3.99277 0-6.52478 1.60686-7.54733 4.86926-.38954 1.21729-.38954 2.19115-.0974 2.97022h-.97384c-.7304.0488-1.70423.0974-2.33724.0974-1.46077 0-2.38593-.24346-2.72678-.73038-.29216-.43824-.29216-1.26601.0974-2.48333.63301-1.99638 2.14246-2.87285 4.57709-2.87285 1.26601 0 2.48332.14612 2.48332.14612.14613 0 .24346-.19476.24346-.34083l-.0488-.14612-.0973-.6817c-.0488-.43822-.38953-.68168-.97384-.77908C20.19855 0 19.76033 0 19.17602 0h-.0488c-3.16501 0-5.40488 1.07124-6.62217 3.11633C12.94327 1.02255 11.4825 0 8.12272 0 6.22371 0 4.86033.0488 4.08123.14612c-.63298.0973-1.02253.34085-1.16862.77907l-.29215.87647c-.0488.14612.0488.24346.24348.24346.14612 0 .73037-.0974 1.70423-.14613 1.31469-.0974 2.23985-.14612 2.87285-.14612 1.85032 0 2.67809.48694 2.38594 1.41208-.0488.19478-.19477.34085-.43824.38954-1.75293.29216-3.16501.48692-4.18754.63301C2.27963 4.57705.57539 5.45351.13715 6.91428c-.633 1.99639.92516 2.97023 4.67448 2.97023 1.85032 0 3.45716-.0974 4.72317-.34083.73038-.14613 1.11993-.29216 1.26601-.77909l.68169-2.23985c-.0488 2.23985 1.46077 3.35977 4.67447 3.35977 1.3634 0 2.67809-.0488 3.3111-.14612.633-.0974.97385-.24346 1.11992-.7304l.14612-.68168c.68171 1.07123 2.19118 1.60684 4.47972 1.60684 2.43461 0 3.84671-.0488 4.23623-.19476.34085-.0974.53562-.29216.63301-.53562 0-.0488 0-.0974.0488-.14612l.29215-.92516c.0488-.14612-.0488-.24346-.24346-.24346l-1.55816.0974c-1.02253.0488-1.8503.0974-2.43461.0974-1.11994 0-1.85032-.0974-2.28856-.24348-.63301-.24346-.92516-.68168-.87647-1.41208l4.91794-.633c2.19115-.29216 3.70062-.97384 4.43102-2.04509l-1.70424 5.69703c-.0488.0974 0 .19476.0488.24346.0488.0488.14613.0974.34083.0974h2.04509c.34085 0 .48693-.19478.53563-.34085l1.80161-6.28133c.24347-.82777.97385-1.2173 2.33724-1.2173 1.21731 0 2.09377 0 2.67808.0488h.0488c.0974 0 .29216-.0488.43825-.29216l.29215-.87646c0-.14612 0-.29216-.0974-.38953zM8.31761 7.93707c-.63301.0974-1.55817.14612-2.72679.14612-2.09376 0-2.97022-.43824-2.72676-1.26601.19476-.58431.73037-.97385 1.60684-1.07123l4.72317-.633zm21.76554-5.06403c-.19478.63301-1.11994 1.07125-2.77548 1.31471l-3.94408.53561.0974-.34085c.34085-1.07122.77909-1.75293 1.3634-2.14245.58431-.38955 1.55814-.58431 2.92155-.58431 1.8016.0488 2.58069.43822 2.33723 1.21729z" fill="#83b81a"/></svg>