<svg xmlns="http://www.w3.org/2000/svg" height="800" width="1200" viewBox="-29.999685 -16.372025 259.99727 98.23215"><path d="M167.1059 55.846c-.003 0-.6185.5488-.6185.5488-.8795.7863-1.7845 1.628-2.877 1.207-.3018-.1097-.514-.5117-.565-.8237-.0497-2.2505.9637-4.3358 1.9465-6.3662l.252-.531c2.827-4.7202 6.113-10.282 10.939-14.142.8132-.5868 1.6958-1.0798 2.6272-.6953.2142.2008.4637.5488.4637.896 0 .1103-.0977.4028-.1542.4938-1.3478 2.1782-2.6315 4.465-3.8798 6.6602-2.4395 4.3365-4.9702 8.8185-8.134 12.753zm-26.149-11.124c-.1847.1288-3.445-.9694-4.075-3.9881-.5345-2.599 1.2552-4.6298 2.9868-5.6535.7432-.5858 1.8628-.7865 2.684-.495.7622.513.9688 1.4285.9688 2.415 0 .605-.0803 1.2265-.151 1.7935l-.0158.1285c-.5432 2.0302-1.3745 4.0248-2.3978 5.7998zm-12.454 12.277c-.3325-.494-.4428-1.0341-.4538-1.6181-.0638-3.5875 3.796-10.012 6.5205-13.512h.006c1.1418 2.5 3.7272 4.107 5.288 4.7842-1.9385 4.3182-8.5868 13.566-11.36 10.346zm47.054.637c-.6453.439-1.5518.1016-1.2128-.9044.8442-2.5615 4.2008-7.7815 4.2008-7.7815l9.349-16.582h-6.404c-.3043.5-.9553 1.6482-.9553 1.6482-.2962-.4935-1.1822-1.591-1.547-1.828-1.5645-.9888-3.86-.5213-5.4435.375-6.8848 4.0258-11.908 11.98-15.87 18.182 0 0-4.1702 6.895-6.4852 7.4078-1.8072.1465-1.6208-2.288-1.5425-2.8552.6988-4.099 2.3215-7.9958 3.9565-11.527 3.3252-2.3052 7.1202-5.324 10.569-8.6355 7.4845-7.1545 13.794-15.26 14.716-17.071 0 0-.9982.2015-2.177.2377-5.758 8.032-17.541 19.706-21.113 21.443 1.5825-3.8062 11.807-21.974 20.508-30.664l1.3693-1.3178c2.117-2.0675 4.3108-4.1898 6.0202-4.5375.1805-.0182.413 0 .6137.4215.0763 1.6098-.523 2.7992-1.2105 4.153l-.9635 1.9763s1.3648-.2562 2.261-.5497c1.04-1.9568 2.1918-4.153 1.7672-6.7688-.1417-.8418-.751-1.482-1.5472-1.6285-2.5955-.494-5.4242 1.4265-7.7002 2.9822l-.092.0545c-11.7 9.1665-21.58 22.377-30.218 40.417-.626.475-3.0448 1.0428-3.456.768.853-1.756 1.927-4.1168 2.4645-6.6782.093-.732.1795-1.4818.1795-2.2135 0-1.5748-.378-3.0562-1.7888-4.0805-1.654-.8235-3.6982-.439-5.0765.1827-6.1745 2.5615-10.789 8.8925-14.119 14.106-1.791 3.3125-3.5768 6.8602-4.0712 10.923-.3483 3.183.3607 5.2322 2.1705 6.2572 1.8612.9508 4.2038-.0375 5.124-.5127 6.2552-3.2932 10.626-9.8978 14.071-15.936.137-.018 2.018-.0725 3.4408-.439.019 0 .027 0 .0585.0192-.0815.2732-.8168 2.4695-.8168 2.4695-2.1835 6.4032-3.1932 10.758-1.1308 13.338 2.9472 3.6412 7.8265-.1275 11.796-5.105-.852 5.9645 2.2392 6.898 4.5955 6.441 2.7068-.7315 5.723-3.623 7.1228-5.1045-.4495 1.7378-.3272 4.8485 2.135 5.1592 1.6878.312 2.9508-.606 4.4122-1.393 5.2422-2.8545 11.518-12.366 13.147-15.116h-2.1362c-2.316 3.5002-5.2632 8.0895-8.9705 10.268zm-80.761-35.518h5.9998l3.3862-5.5h-6.001zm95.841-14.611c-4.5748 2.5986-9.317 4.2814-15.058 3.696-1.591 1.7936-3.14 3.6413-4.5678 5.5439 8.0572 2.0492 16.599-2.5065 21.363-6.8422 5.0395-4.373 7.6238-9.8797 7.6238-9.8797s-3.7775 4.3175-9.3612 7.4822zm-50.45-1.39c-.954 10.941-9.4588 17.364-11.563 17.875-1.2752.2558-3.4512-.311-1.5088-4.9027 2.8608-6.1848 7.7448-11.435 12.985-14.125.1275.4575.1242.7495.0867 1.1525zm-16.572 27.572c-.6093-1.317-2.0558-2.1587-3.5972-2.0674-5.0058.4577-9.902 4.5742-12.473 10.484-1.349 3.0375-2.0852 5.5438-2.568 9.5322 1.5565-1.7925 4.7315-4.738 8.3345-6.3482 0 0 .4902-3.8238 2.9902-7.227.946-1.4092 2.8392-3.6778 4.965-3.0742 1.8572.6225 1.2045 5.7638-1.264 10.739-1.8265 3.6598-4.6215 7.32-7.4495 9.8442-2.5002 2.1225-6.1995 4.6838-9.436 2.708-2.0385-1.207-3.0782-3.7325-2.8585-6.9892.974-9.2392 5.1798-17.107 11.198-26.072 6.206-8.3248 13.047-16.869 22.263-21.426 1.8798-.9513 3.6205-1.1708 5.1252-.5853 0 0-8.651 4.757-12.775 13.558-1.049 2.2325-2.508 5.2505-1.0388 7.922.7677 1.3902 2.131 1.5002 3.2285 1.427 5.0548-1.1712 8.3205-5.8915 10.989-10.209 1.547-3.275 2.922-6.5318 2.922-10.155 0-.439-.0228-1.0242-.06-1.4638 2.415-1.2802 7.367.988 7.367.988 3.8698 1.2812 12.11 7.5938 14.889 8.8008 1.3558-1.5732 3.5838-3.9515 4.8382-5.141l-1.816-1.1162c-2.9075-1.7748-5.9808-3.4582-9.0058-5.123-6.8698-3.7502-12.462-2.4332-15.308-1.4085-1.1185.4023-2.1408.75-2.1408.75-2.112-2.3052-5.5758-2.0862-8.128-1.4637-9.1785 2.6345-17.7 9.0562-26.836 20.199-6.717 8.7275-10.884 16.266-13.104 23.712-1.7118 5.0128-2.232 12.386 1.946 16.759 3.5522 3.713 8.2625 2.9088 11.589 1.5735 7.2068-3.5495 13.684-11.198 16.912-19.998.7788-2.616 1.6432-6.3118.3023-9.1298zm-79.885-8.4887c-.012.0365-1.224 2.8172-1.224 2.8172-.1752.1462-.4522.0733-.7697 0l-.544-.092c-1.7082-.5303-2.9968-1.6648-3.394-3.0185-.548-2.6348 1.7028-4.7022 2.6945-5.452.9515-.6593 2.4308-1.0068 3.2898-.3295.5297.6222.7305 1.427.7305 2.3058.0002 1.189-.3668 2.5245-.783 3.769zm-2.6035 5.287s-.055.1652-.0822.2192c-.007 0-2.755 4.482-2.755 4.482-1.6585 2.2142-3.7292 4.996-6.3178 6.331-.7672.2563-1.8278.4213-2.3682-.2552-1.1458-1.3725-.5552-3.2752-.0755-4.812l.1698-.549c1.3755-3.732 3.558-7.026 5.6822-10.082.0265-.018.086-.0362.1075-.0362.005.0183.0135.0183.0172.055 1.333 2.561 3.8325 3.7498 5.7018 4.2995.0113 0 .0233.0182.0233.055.0002.0545-.0303.1282-.103.2922zm34.376-2.9455c1.2292-1.7012 4.807-6.2572 5.6792-7.0255 2.9335-2.5808 4.106-1.4452 4.2075-.6408-2.7378 4.9032-5.969 10.52-9.007 15.57.006-.018-.9507 1.4452-.9507 1.4452-1.3418 2.0488-2.6928 3.8052-4.8965 5.031-.3143.092-.8323.1288-1.177-.1282-.415-.2745-.5788-.732-.532-1.208.132-1.573 1.7338-6.384 6.6765-13.044zm-30.465-11.124c-3.7925-2.4882-11.415 2.2688-17.52 10.428-5.583 7.3192-7.9938 15.826-5.3702 19.76 3.9028 4.6288 11.148-2.104 14.229-5.7078l.3975-.4213c2.0952-2.2505 3.714-4.9585 5.2808-7.5568 0 0 1.44-2.3785 1.5088-2.4885.89-.164 1.962-.4202 3.17-.768-.0172.0545-4.6218 7.794-4.152 11.636.1463 1.172.0345 5.4532 4.2145 6.752 5.571.9338 10.02-3.3848 13.944-7.227 0 0 .6688-.6397 1.047-1.005a215.179 215.179 0 00-.2205.8945c-1.631 5.672.5675 6.862 1.9428 7.3012 4.1562 1.2082 9.1215-4.83 9.1375-4.83-.1287 1.902-.5052 3.4755 1.4998 4.738 1.8925.6775 3.8078-.3552 5.2635-1.325 5.2438-3.6958 9.4682-9.48 12.88-14.48h-2.1765c-.0257 0-5.3708 7.747-8.8415 9.4308-.005 0-.637.3243-1.001.0677-.4505-.3845-.2727-1.1835.005-1.7495.0175-.037 13.401-23.249 13.401-23.249h-6.319s-.6902 1.1168-.7465 1.19c-.0425-.0365-.1437-.2285-.214-.3205-3.915-5.4155-12.781 2.9145-19.456 12.574-2.5698 3.7145-5.8415 7.8968-9.234 10.916 0 0-5.0258 4.607-7.1732 1.297-.785-1.3908-.5435-3.424-.1007-4.7592 2.5002-7.1172 6.8085-13.576 11.711-17.474 1.384-1.0788 2.8882-1.3908 3.6348-.9332.7112.4215.826 1.4635.376 2.1772-1.1418-.0365-2.0565.3105-2.8002 1.079-1.465 1.537-1.974 3.0192-1.5082 4.41 2.2628 3.22 6.7755-3.1472 6.5572-7.026-.078-1.3908-.82-2.7078-1.9272-3.3488-1.6502-.9875-4.1678-.7318-5.797.0555-2.181.823-5.6335 3.6952-7.6488 5.9278-2.537 2.7998-6.888 5.9098-8.2488 5.5615.4457-1.1898 4.121-8.7092.2547-11.526zm31.762 40.709c-7.442-4.794-17.542-5.6352-33.83-1.1162-17.364 4.0805-23.154 6.6962-30.757 1.4452-2.921-2.5795-3.9683-6.7328-3.1862-12.715 1.8138-9.7525 6.7152-19.138 15.422-29.548 4.8598-5.4155 9.3675-10.063 15.32-11.929 4.562-1.1708 4.1355 2.4145 3.5835 2.9272-.5825 0-1.561.0918-2.3172.5852-.6137.476-2.2985 2.013-2.389 4.0805-.1305 3.165 3.145 2.5062 4.5578.7685 1.5228-1.9582 3.7732-5.7083 2.003-9.2033-.742-1.244-2.024-2.1037-3.6158-2.3965-5.4505-.3115-10.527 2.2867-15.212 5.1592-10.243 7.117-18.439 16.979-23.076 27.774-2.6738 6.5132-5.0918 15.843-1.4672 23.437 2.8038 5.269 8.6248 8.0678 15.57 7.4825 4.8708-.5117 10.76-2.086 14.722-3.0365 3.9612-.952 24.238-7.9222 30.901 4.209 0 0 2.2155-4.3008 7.7522-4.3925 4.552-.42 11.119 1.3178 15.901 4.83-1.5932-2.396-6.1102-5.9272-9.8785-8.361z" fill="#f40009"/></svg>