<svg xmlns="http://www.w3.org/2000/svg" height="800" width="1200" version="1.0" viewBox="-112.2765 -67.74875 973.063 406.4925"><path d="M120.757.602c32.48-2.25 65.98 1.59 95.78 15.26 26.57 12.01 49.64 32.56 62.79 58.77 13.05 25.48 16.44 55.45 10.81 83.41-5.33 27.05-19.69 52.27-40.55 70.35-23.15 20.34-52.89 31.69-82.9 37.15-27.08 5.02-54.74 5.78-82.21 5.35-20.93-.29-41.87-.31-62.76-1.66-2.22-.28-5-.17-6.49-2.13-1.8-2.38-.02-5.69 2.45-6.71 12.67-7.2 22.79-18.25 30.25-30.66 8.37-13.5 14.09-28.38 20.01-43.05 9.96-25.2 19.12-50.7 28.89-75.97 7.31-18.64 15.43-37.36 28.06-53.09 11.99-15.05 29.8-25.45 48.86-28.19 2.4-.11 5.24-.82 7.34.68 2.19 2.74-1.56 4.8-3.34 6.42-18.03 13.71-28.46 34.58-36.9 55.05-15.84 39.2-27.95 79.89-45.85 118.25-7.23 14.62-15.77 28.93-27.73 40.19-2.02 1.99-4.57 3.54-6 6.05-.79 2.62 2.35 3.82 4.45 3.79 16.31 1.02 32.68 1.13 49 .83 27.29-.95 55.03-5.87 79.4-18.67 24.1-12.27 43.47-33.48 53.38-58.66 10.55-26.3 12.3-55.67 6.94-83.36-4.51-23.52-16-46.13-34.41-61.78-22.65-19.43-53.04-27.03-82.31-27.86-25.45-.2-51.56 3.86-74.24 15.91-21.66 11.34-39 31.14-46.15 54.64-3.95 14.16-4.57 29.44-.51 43.65 1.3 3.55-4.42 4.12-5.95 1.69-8.46-11.28-11.36-25.93-10.8-39.79.64-17.26 9.61-33.11 21.35-45.33 19.45-20.32 46.41-31.88 73.68-37.14 8.46-1.73 17.06-2.76 25.66-3.39zm268.49 95.69c16.58-2.3 34.8-1.07 48.96 8.68 12.34 8.39 19.24 22.86 21.08 37.37 2.44 19.56-1.51 39.55-9.25 57.56-9.41 21.54-24.79 40.58-44.37 53.69-18.68 12.53-41.68 19-64.16 16.44-12.74-1.31-25.35-6.75-33.88-16.51-11.36-12.67-14.57-30.53-13.61-47.04 1.78-28.78 14.73-56.39 34.38-77.3 16.02-17.11 37.47-29.62 60.85-32.89m5.91 8.81c-9.89 2.33-18.58 8.08-26.06 14.77-11.74 10.66-20.78 23.99-27.74 38.16-11.29 23.63-17.06 50.45-13.35 76.57 1.6 9.85 5.73 20.92 15.62 25.08 11.17 4.63 23.85.48 33.45-5.88 16.01-10.88 27.27-27.35 35.72-44.49 10.83-22.87 17.34-48.45 14.87-73.85-1.13-9.18-3.43-19.1-10.43-25.67-5.8-5.54-14.55-6.5-22.08-4.69zm283.95-7.91c11.23-2.29 22.98-2.49 34.2 0 7.86 1.83 15.7 5.81 20.06 12.87 5.69 9.06 4.95 20.92.12 30.18-7.2 13.98-20.16 23.95-33.73 31.32-23.57 12.57-50.17 18.16-76.56 20.76-3.22 10.7-4.15 21.98-3.98 33.11.3 8.58 2.38 17.67 8.36 24.14 5.03 5.59 12.73 8.15 20.13 7.96 14.7.19 28.9-5.77 40.42-14.62 9.48-7.12 17.43-16.05 24.63-25.41 2.86-3.19 8.88.55 6.2 4.48-14.95 26.35-42.57 46.3-73.21 48.52-14.72 1.03-30.77-.99-42.61-10.52-10.21-7.99-15.35-20.91-16.47-33.54-1.81-19.6 2.88-39.34 10.87-57.16 7.53-16.44 18.08-31.54 31.15-44.04 14.02-13.43 31.32-23.91 50.42-28.05m2.68 9.5c-11.76 4.93-21.15 14.07-29.08 23.83-12.31 15.69-21.1 33.98-26.85 53.02 13.63-1.43 27.13-4.7 39.76-10.1 13.24-5.68 25.81-13.72 34.98-24.99 6.57-8.1 11.06-18.49 9.98-29.08-.51-5.36-2.85-11.23-8.04-13.61-6.6-3.09-14.24-1.63-20.75.93zm-96.85-6.31c3.71-3.33 9.17-5.42 14-3.29 4.01 1.6 5.48 6.38 4.95 10.36-1.43 15.14-6.87 29.55-12.77 43.45-14.48 34.02-36.42 64.46-61.98 91.02-8.19 8.2-16.78 16.14-26.62 22.36-4.79 2.93-10.04 5.63-15.79 5.72-3.18-.01-6.82-1.21-8.21-4.31-2.43-5.39-1.76-11.47-1.78-17.22 2.1-36.22 6.74-72.65 2.48-108.9-1.46-10.73-3.48-21.92-9.73-31.02-1.57-2.48-4.15-4.02-6.04-6.19-.37-1.79 1.89-2.43 3.21-2.77 11.01-2.01 23.43.34 31.65 8.32 7.63 7.02 10.81 17.45 12.1 27.45 3.82 30.24 1.72 60.86-.83 91.12-.25 4.48-1.36 9.37 1.02 13.49 5.4-.09 9.46-4.03 13.07-7.57 23.71-24.69 41.99-54.54 53.44-86.78 4.03-11.51 7.12-23.4 8.41-35.54.36-3.24.25-6.54-.58-9.7zm145.27 141.82c7.84-2.25 16.84 3.28 18 11.43 1.85 8.29-5.04 16.95-13.52 17.11-8.39.83-16.03-6.88-15.44-15.23.3-6.18 4.88-11.91 10.96-13.31m1.01 1.98c-4.86 1.05-8.81 5.33-9.54 10.24-1.3 7.04 4.87 14.24 12.01 14.19 6.93.35 13.11-6.18 12.56-13.06-.17-7.31-7.95-13.26-15.03-11.37z" fill="#090a4a"/><path d="M728.197 247.242c3.76.24 8.8-1.13 11.34 2.56 1.6 3.12-.62 6.46-3.73 7.36 1.69 2.51 3.33 5.04 4.9 7.63-5.67 1.35-4.7-8.1-9.97-7.71-.02 2.56-.02 5.12-.02 7.68-.63-.02-1.91-.06-2.54-.07.03-5.82.03-11.64.02-17.45m2.52 1.94c0 2.05.02 4.11.06 6.16 2.54.11 7.15.12 6.71-3.61-.35-3.21-4.5-2.32-6.77-2.55z" fill="#090a4a"/></svg>