<svg xmlns="http://www.w3.org/2000/svg" height="800" width="1200" viewBox="-44.7 -21.0567 387.4 126.3402"><defs><clipPath clipPathUnits="userSpaceOnUse" id="b"><path d="M0 0h598.11v737.008H0z"/></clipPath><clipPath clipPathUnits="userSpaceOnUse" id="a"><path d="M0 0h598.11v737.008H0z"/></clipPath></defs><g clip-path="url(#a)" transform="matrix(2.10255 0 0 -2.10255 -893.9985 1489.9996)" fill="#939ca1"><path d="M500.6749 698.2117c-.198-.24-.31-.508-.31-.974v-12.813h-.071s-7.013 12.503-7.352 13.081c-.24.41-.508.692-.861.904-.353.197-.72.324-1.425.324h-2.314c-.537 0-.875-.183-1.115-.466-.198-.239-.311-.508-.311-.973v-18.162c0-.466.113-.734.311-.974.24-.282.578-.465 1.115-.465h1.312c.536 0 .875.183 1.115.465.197.24.31.508.31.974v13.124h.071s7.281-12.898 7.578-13.378c.409-.677 1.1-1.185 2.088-1.185h2.244c.536 0 .875.183 1.115.465.197.24.31.508.31.974v16.384h29.479c.297 0 .522.084.692.225.183.17.268.396.268.734v1.242c0 .339-.085.565-.268.734-.17.141-.395.226-.692.226h-32.174c-.536 0-.875-.184-1.115-.466m12.87-4.854c-4.897 0-7.649-3.825-7.649-7.861 0-4.304 2.95-8.086 7.677-8.086 2.357 0 4.671.889 5.997 2.456.579.677 1.045 1.623 1.045 2.201 0 .198-.043.367-.155.494-.113.141-.283.226-.579.226h-2.272c-.452 0-.762-.169-.988-.508-.663-.974-1.623-1.482-3.034-1.482-2.117 0-3.485 1.609-3.584 3.373h9.822c.437 0 .747.099.959.31.24.226.353.551.353 1.158 0 1.848-.579 3.767-1.792 5.235-1.242 1.482-3.133 2.484-5.8 2.484m15.141 0c-3.866 0-6.406-1.835-6.406-4.77 0-1.044.381-1.891 1.002-2.554.72-.777 1.75-1.313 3.246-1.694l3.231-.818c.889-.226 1.679-.494 1.679-1.27 0-1.2-1.27-1.609-2.624-1.609-.664 0-1.355.127-1.92.409-.395.198-.733.48-.973.861-.212.325-.282.565-.607.748-.198.113-.438.127-.762.127h-1.75c-.381 0-.564-.113-.691-.268-.127-.155-.17-.381-.17-.607 0-.564.198-1.27.664-1.905 1.072-1.439 3.316-2.597 6.18-2.597 2.823 0 6.732 1.172 6.732 4.954 0 .973-.283 1.806-.805 2.483-.663.861-1.608 1.454-3.217 1.863l-3.203.819c-1.327.338-1.948.578-1.948 1.397 0 .79.706 1.425 2.342 1.425.96 0 1.835-.212 2.4-.805.465-.494.381-.748.748-.945.225-.113.479-.113.875-.113h1.594c.254 0 .438.042.578.198.114.127.184.324.184.649 0 .734-.48 1.679-1.326 2.399-1.129.974-2.907 1.623-5.053 1.623m8.792-.537h-.79c-.296 0-.522-.084-.691-.225-.184-.17-.269-.396-.269-.734v-.974c0-.339.085-.564.269-.734.169-.141.395-.226.691-.226h.79v-7.041c0-1.806.494-2.935 1.411-3.839.847-.832 1.948-1.354 3.867-1.354h1.199c.297 0 .522.084.692.225.183.17.296.396.296.734v1.228c0 .339-.113.564-.296.734-.17.141-.395.226-.692.226h-.169c-.762 0-1.284.197-1.637.536-.423.395-.635 1.002-.635 1.792v6.759h2.569c.296 0 .522.085.691.226.183.17.268.395.268.734v.974c0 .338-.085.564-.268.734-.169.141-.395.225-.691.225h-2.555v4.601c0 .367-.113.635-.282.846-.212.254-.508.41-.945.41h-1.595c-.438 0-.734-.156-.946-.41-.169-.211-.282-.479-.282-.846zm8.637-13.871c0-.367.112-.635.282-.847.211-.254.508-.409.945-.409h1.679c.438 0 .734.155.946.409.169.212.282.48.282.847v18.471c0 .367-.113.635-.282.847-.212.254-.508.41-.946.41h-1.679c-.437 0-.734-.156-.945-.41-.17-.212-.282-.48-.282-.847zm-36.084 8.227c.183 1.736 1.51 3.034 3.528 3.034 1.976 0 3.344-1.298 3.528-3.034zm55.501 8.34c.296 0 .522.084.691.225.184.17.269.396.269.734v1.313c0 .508-.099.762-.269.945-.155.17-.409.268-.691.268-.226 0-.451-.028-.832-.07l-11.262-1.115c-.324-.028-.479-.127-.592-.254-.127-.141-.184-.325-.184-.579v-.733c0-.283.057-.41.156-.523.126-.141.31-.211.564-.211zm-6.223-2.159c-4.897 0-7.649-3.825-7.649-7.861 0-4.304 2.95-8.086 7.677-8.086 2.357 0 4.671.889 5.997 2.456.579.677 1.045 1.623 1.045 2.201 0 .198-.043.367-.156.494-.112.141-.282.226-.578.226h-2.272c-.452 0-.762-.169-.988-.508-.663-.974-1.623-1.482-3.034-1.482-2.117 0-3.486 1.609-3.584 3.373h9.85c.437 0 .748.099.959.31.24.226.353.551.353 1.158 0 1.848-.579 3.767-1.792 5.235-1.242 1.482-3.161 2.484-5.828 2.484m-3.514-6.181c.184 1.736 1.51 3.034 3.528 3.034 1.976 0 3.344-1.298 3.528-3.034zm-84.7945 8.1708c-3.653 5.449-6.863 7.285-7.766 8.149-.992.953-1.748 2.033-2.229 2.553-1.07 1.169-2.455 2.612-4.733 2.612-2.199 0-3.652-1.433-4.124-2.671-.137-.353-.245-.785-.343-.942-.216-.354-1.188-2.013-1.591-2.671h1.817l-.884-1.669c1.031.226 1.767.393 2.749.393.874 0 1.502-.207 1.777-.756.511-1.022.511-4.114 1.375-6.442.805-2.188 2.769-4.329 4.978-5.969a.1691.1691 0 01.098-.029c.108 0 .177.078.177.157 0 .059-.02.098-.069.147-1.846 1.846-3.348 3.888-4.153 6.126-.796 2.18-.668 5.244-1.365 6.609-.462.903-1.443 1.138-2.347 1.138-.726 0-1.404-.147-1.718-.215l.795 1.345h-1.345c.285.5.579.962.727 1.237.127.236.177.53.334.932.51 1.287 1.639 2.102 3.112 2.102 1.846 0 2.926-1.188 3.996-2.376.491-.55 1.296-1.699 2.229-2.553.638-.589 1.856-1.247 3.731-3.182 1.08-1.119 2.337-2.572 3.662-4.516 4.743-6.941 7.855-13.058 9.593-17.83l-.029-.02c-4.978 3.378-9.289 6.569-12.764 10.506-2.465 2.798-4.605 6.038-6.471 10.172-.128.275-.235.53-.353.795-.049.108-.098.138-.177.138-.098 0-.167-.069-.167-.167 0-.108.049-.344.157-.815.992-4.281 3.741-8.12 6.677-11.311 2.926-3.172 6.234-5.901 8.954-7.885l2.121-6.067c.049-.148.108-.305.108-.452 0-.108-.03-.196-.098-.255-.059-.059-.137-.089-.314-.089h-.638c-.275 0-.384.04-.482.118-.098.079-.166.197-.216.334-.186.57-1.306 3.761-1.521 4.409-.04.117-.109.157-.187.157a.166.166 0 01-.167-.167c0-.079.029-.167.079-.442.284-1.453.618-3.083.755-3.702.06-.284.128-.55.128-.746 0-.176-.039-.275-.186-.422l-.658-.668c-.157-.157-.246-.196-.373-.196-.157 0-.285.108-.344.383-.746 3.486-1.875 7.805-2.17 9.004-.069.264-.118.412-.275.412-.137 0-.186-.098-.186-.216 0-.088.019-.196.029-.275.177-1.237.894-5.744 1.669-9.858.138-.707.403-1.099 1.012-1.099.275 0 .539.108.785.343.403.403.52.511 1.002.982.343.334.579.471 1.168.471h1.453c.344 0 .53.088.697.246.157.147.255.353.255.648 0 .304-.078.549-.186.854-.373 1.001-1.571 4.389-1.925 5.341l.03.02c1.227-.933 3.014-2.121 3.8-2.121.245 0 .393.108.393.491 0 1.806-3.005 9.239-9.868 19.47m-33.7069 11.4093c.206.452.658.766 1.198.766.736 0 1.325-.57 1.325-1.326 0-.441-.206-.825-.53-1.06.069-.256.118-.481.118-.697 0-.825-.491-1.404-1.394-1.709-.118-.5-.334-.952-.688-1.286-.589-.569-1.188-.569-1.188-.805 0-.128.089-.206.334-.206 1.09 0 2.16.608 2.288 1.62 1.041.353 1.669 1.404 1.669 2.238 0 .217-.02.403-.108.579.285.276.619.747.619 1.444 0 .609-.266 1.227-.737 1.679-.412.403-.992.668-1.669.668-.982 0-1.62-.531-1.983-1.051-1.071 0-2.455-1.188-2.455-2.887h-.147c-.099.589-.707.983-1.218 1.012-.412 1.237-1.345 2.297-2.877 2.297-.176 0-.392-.01-.579-.039-.451.413-.952.668-1.649.668-1.336 0-2.426-1.071-2.426-2.425 0-.845.383-1.424 1.11-1.935 0 0-.01-.108-.01-.157 0-1.08 1.178-2.769 2.926-2.769 0-.274.344-.648.727-.716v-.138h-.148c-2.405 0-3.426-1.159-3.426-1.934-.717-.295-1.179-1.09-1.179-1.826 0-1.463 1.071-2.504 2.485-2.504.471 0 .952.186 1.286.442.245-.088.559-.137.883-.137.678 0 1.434.235 1.964 1.011.079-.01.147-.01.226-.01.864 0 1.61.57 2.003 1.316.098.186.137.333.137.442 0 .107-.049.196-.157.196-.137 0-.157-.128-.402-.354-.55-.501-1.395-.687-2.259-.687-.422-.619-.942-.943-1.541-.943-.442 0-.785.118-1.139.354-.285-.314-.638-.442-.982-.442-.775 0-1.325.54-1.325 1.326 0 .55.353 1.04.844 1.227.088.972 1.129 1.63 2.425 1.63.167 0 .334-.01.511-.03.196.314.667.648 1.335.737.138.019.245.029.324.068.079.04.118.118.118.207 0 .078-.03.147-.108.196-.069.039-.187.058-.324.088-.619.118-1.355.501-1.728 1.434-1.483 0-2.573 1.188-2.573 2.523v.088c-.491.197-.824.668-.824 1.228 0 .736.579 1.325 1.315 1.325.442 0 .825-.216 1.071-.54.206.059.441.079.667.079 1.1 0 2.278-.697 2.504-2.052 1.414-.128 1.748-1.326 1.836-1.827.049-.255.088-.471.255-.471.177 0 .216.197.275.462.108.5.295.903.668 1.217 0 1.287.962 2.396 2.327 2.396m2.857-7.6976c-.462-.658-.795-.982-1.846-2.219-1.384-1.64-2.111-2.966-3.319-5.911.197.02.482.039.796.039.157 0 .284 0 .491-.009l.147.314c.678 1.453 1.59 3.417 2.867 4.929l.442.52c1.315 1.541 2.13 2.455 2.641 4.556.177.746.324 1.413.825 1.895.451.432 1.021.618 1.6.618.491 0 .855-.118 1.385-.343.481-.206.657-.246 1.168-.246.177 0 .304.01.422.02l-.687-.923.933-.658c-1.169-.343-1.787-1.473-1.994-1.993-.039-.108-.058-.177-.058-.246 0-.079.039-.157.157-.157.127 0 .225.098.392.295.57.687 1.022 1.159 3.122 1.816l-1.482 1.12 1.119 1.639h-1.05c-.668 0-1.11.01-1.689.275-.786.363-1.188.52-1.885.52-.854 0-1.63-.304-2.268-.893-.737-.677-.963-1.581-1.227-2.573-.207-.765-.452-1.61-1.002-2.385"/><path d="M442.4087 692.3728c-.56-.756-1.326-1.747-1.915-2.798.187-.089.806-.423 1.022-.54.677 1.021 1.62 2.277 2.238 3.23.56.864.786 1.237.825 2.396.01.196.01.383.029.569.049.599.207 1.208.776 1.767.422.423 1.031.638 1.64.638.589 0 .932-.166 1.443-.166.363 0 .628.088.864.176l.187.069-.452-1.081 1.06-.431c-.677-.422-2.16-2.239-2.16-4.389 0-.776.118-1.492.285-2.13.02-.069.059-.138.167-.138.098 0 .167.059.177.167l.01.226c.029.658.078 1.698.343 2.631.442 1.571 1.63 3.044 2.818 3.751l-1.689.736.727 1.777-.795-.167c-.481-.098-.835-.186-1.257-.186-.275 0-.589.039-.962.128-.285.068-.59.127-1.021.127-.776 0-1.611-.294-2.18-.844-1.041-.992-1.1-2.062-1.169-3.015-.088-1.266-.324-1.58-1.011-2.503m25.1944-.5988c-.069.088-.128.128-.206.128-.118 0-.177-.079-.177-.167 0-.138.098-.305.344-.718.746-1.266 1.669-2.542 2.808-3.741 1.227-1.305 2.67-2.522 4.212-3.612l.481-.334c.069-.05.118-.079.177-.079.098 0 .167.098.167.177 0 .049-.02.099-.079.148-1.433 1.305-2.975 2.896-4.418 4.427-1.13 1.208-2.288 2.484-3.309 3.771m-31.596 4.4475c.147.245.589.844.766 1.031-.756 1.531-1.993 2.994-2.533 3.574l-.452-.442c.521-.756 1.394-2.219 2.219-4.163m-7.1969 8.8659c-.089.079-.108.128-.108.187 0 .068.049.147.157.147.039 0 .078-.01.128-.03.726-.294 1.345-.638 1.895-1.06.461-.353.913-.786 1.354-1.306l-.412-.471c-.51.423-2.16 1.806-3.014 2.533m6.9613-3.2891l-.53.324c.343.815.766 1.561 1.266 2.121.354.402.688.727 1.061 1.05.088.069.137.128.225.128.099 0 .168-.079.168-.157 0-.039-.02-.088-.059-.147-.599-.933-1.768-2.779-2.131-3.319m-6.6568-4.5556c-.128-.049-.187-.079-.255-.079-.108 0-.158.089-.158.158 0 .068.03.107.099.167 1.207.942 2.268 1.315 3.731 1.561l.176-.59zm25.1842 7.6187c0 .344.177.963.815.963.216 0 .422-.049.589-.128.236-.108.393-.265.393-.432 0-.177-.177-.354-.442-.57-.275-.225-.628-.432-.913-.432-.343 0-.442.325-.442.599m-9.9657-2.8668c0 .422.255.884.746.884.216 0 .471-.088.658-.266.108-.098.157-.205.157-.314 0-.236-.226-.461-.491-.618-.206-.118-.422-.197-.608-.197-.305 0-.462.188-.462.511"/><path d="M446.6406 695.9366c0 .098.01.216.049.334.079.255.245.501.658.501.187 0 .392-.049.559-.168.148-.098.207-.225.207-.353 0-.422-.707-.913-1.061-.913-.255 0-.412.246-.412.599m-3.8685-12.3906c-1.325 0-1.915.628-1.915 1.423 0 1.395 2.445 2.759 4.644 3.604l.57-.737c-1.355-.539-4.084-1.699-4.084-2.7 0-.353.206-.609 1.03-.609 1.434 0 2.976.698 4.399 1.395.108.049.236.098.354.098.186 0 .304-.059.441-.255l.236-.324c-1.659-.914-3.731-1.895-5.675-1.895"/><path d="M446.4247 683.1725c-1.296-.726-2.641-1.208-3.829-1.208-1.326 0-2.504.57-3.486 2.053-.412.628-.736 1.413-1.129 2.11-.471.825-.982 1.267-1.875 1.267-.815 0-1.611-.334-2.455-.697l.039-.187c.069-.304.187-.52.471-.52.128 0 .256.058.325.078.471.148.814.276 1.296.276.736 0 1.089-.433 1.59-1.493l.187-.393c-.511-.177-1.709-.265-2.602-.265h-.422l.069-.422c.029-.177.098-.324.245-.393.176-.088.432-.098.874-.098 1.119 0 1.934.137 2.405.256 1.208-1.798 2.867-2.485 4.468-2.485 1.364 0 2.749.501 4.075 1.227zm1.335-.4418l-.235.904c2.022 1.089 3.868 1.963 6.814 2.248.059-1.129-.02-2.553.815-2.553.765 0 2.434 1.974 4.359 4.448.177-.167.461-.344.717-.54l-.491-.638c-1.876-2.416-3.476-4.478-4.792-4.478-1.227 0-1.689 1.444-1.708 2.524-1.875-.187-3.643-.815-5.479-1.915m25.9801 19.7058c-.766 0-.982.423-.982 1.021 0 1.237.776 3.014 1.267 4.026h-1.189c-.618-1.198-3.053-5.037-4.369-6.628l.756-.814c.707.785 1.483 2.12 2.327 3.436h.157c0-.069-.009-.147-.009-.216 0-1.11.569-1.934 1.973-1.934.864 0 2.219.432 3.496.864 1.06.363 2.032.736 2.513.873v1.178c-.55-.166-1.669-.598-2.828-1.001-1.217-.422-2.415-.805-3.112-.805m2.6213-3.5639c1.178.5 3.289 1.345 4.507 1.787v1.198c-2.445-.904-6.736-2.681-9.662-4.272.079-.097.59-.814.648-.903 1.237.511 2.347.845 3.348.845 1.405 0 2.553 0 4.478.452v.903c-1.08-.197-2.229-.432-2.975-.432-.442 0-.57.059-.57.206 0 .088.059.147.226.216"/></g><path d="M54.6864 32.1842l-.9924 1.9007h10.5506l-.7843-1.9007z" fill="#939ca1"/><g clip-path="url(#b)" transform="matrix(2.10255 0 0 -2.10255 -893.9985 1489.9996)" fill="#939ca1"><path d="M433.1302 687.9642c.53 0 .962.177 1.375.343.392.158.785.315 1.315.315 1.257 0 2.808-.609 4.173-1.188a.727.727 0 01.255-.049c.217 0 .384.098.491.304l.177.324c-1.502.874-3.898 1.807-5.145 1.807-.569 0-.982-.148-1.374-.304-.442-.178-.825-.364-1.228-.364-.991 0-3.534.982-3.534 1.934 0 1.119 4.045 1.551 4.487 1.551l.402.914c-2.935 0-6.431-1.031-6.431-2.396 0-.393.226-.589.226-.952 0-.491-.226-.825-.226-1.375 0-.363.216-.825.471-1.228.275-.422.599-.696.599-1.05 0-.265-.176-.579-.176-1.198 0-1.325.756-2.131 2.228-3.711l.295-.314c-1.217-.472-3.486-1.454-4.016-1.679-1.836-.766-2.297-1.699-2.297-3.172 0-.569 0-1.217.039-1.796h.353c.737 0 .825.441.825.863 0 .285-.01.609-.01.963.01.814.04 1.541 1.355 2.13.531.236 3.132 1.296 5.067 2.121.569.246 1.099.452 1.688.452.658 0 1.414-.285 2.357-.845.795-.471 1.63-1.109 2.288-1.845l.834.638c-.717.844-1.708 1.6-2.7 2.189-.992.589-1.875.933-2.621.933-.324 0-.589-.059-.815-.118-.265-.069-.511-.147-.825-.147-.363 0-.668.088-1.11.599-.167.186-1.227 1.394-1.453 1.747-.108.167-.304.501-.304.894 0 .167.029.363.128.54.912-.707 2.042-1.139 3.416-1.306l-.186.933c-1.974.52-4.075 2.258-4.075 3.377 0 .236.059.403.148.609.765-.707 2.562-1.443 3.534-1.443m14.1291-.1771c1.237.874 2.513.972 3.544.972.619 0 1.345-.088 2.111-.186.619-.079 1.178-.138 1.846-.138 1.345 0 2.7.491 3.289.747.167-.207.452-.482.678-.678-.285-.177-2.091-1.158-3.937-1.158-.815 0-1.591.097-2.259.186-.589.078-1.227.147-1.846.147-.677 0-2.042-.196-2.886-.599z"/><path d="M465.4921 684.282c-1.473-3.103-3.712-5.361-6.009-6.667-1.09-.618-2.072-1.021-4.192-1.021h-4.586c-1.639 0-2.67-.216-3.475-.422-.865-.226-1.414-.451-2.288-.451-1.296 0-2.494.638-3.073 1.246l1.08.854-.54.718c-.314-.227-4.153-3.064-4.959-3.702l-.049.029c.02.196.02.373.02.55 0 2.16-1.002 2.681-2.523 3.289l-1.031-.608c2.091-.698 2.611-1.257 2.611-2.818 0-1.238-.442-1.728-1.08-2.102-.658-.383-1.473-.559-2.189-.559-.305 0-.442-.059-.55-.167-.118-.118-.177-.295-.177-.54v-.344h.246c1.315 0 2.533.206 3.868 1.257l4.35 3.397c.618-.707 2.18-1.689 4.025-1.689 1.041 0 1.709.256 2.671.501.746.187 1.473.354 3.063.354h4.605c2.357 0 3.496.491 4.752 1.197 2.73 1.532 5.057 4.124 6.373 7.1-.344.215-.668.412-.943.598"/><path d="M458.0988 680.5901c1.188 1.905 2.248 3.594 4.85 4.968-.275.167-.667.422-.874.56-1.011-.442-2.012-1.325-2.866-2.219-1.964-2.042-1.788-3.22-3.859-4.016-.521-.196-1.159-.412-1.974-.599-.481 1.483-1.688 2.956-2.965 2.956-.884 0-1.905-.461-3.083-.982-1.384-.609-2.651-1.306-3.053-1.571l.54-.727c.412.227 1.6.816 2.788 1.326 1.031.442 1.964.805 2.592.805 1.011 0 1.669-1.149 2.033-2.071-1.326-.315-3.506-.393-4.163-.393-.305 0-.413-.049-.521-.138-.098-.088-.177-.245-.226-.461l-.078-.334h.706c3.673 0 7.139.579 9.367 1.934.315-.089.59-.147.943-.147 1.276 0 2.592.697 3.417 1.335.294.226.363.433.363.658 0 .108-.01.206-.02.305l-.039.382c-1.178-.932-2.16-1.63-3.377-1.63-.216 0-.373.02-.501.059"/></g></svg>