<svg xmlns="http://www.w3.org/2000/svg" height="800" width="1200" viewBox="-74.17065 -39.467 642.8123 236.802"><path d="M316.371 73.588c-1.731.561-4.097 1.037-7.036 1.404-1.4.183-2.958.275-4.782.275-3.063 0-6.381-.244-9.594-.495l-.111-.004c-2.977-.225-5.793-.436-8.495-.436-1.93 0-3.699.114-5.396.331-5.048.627-9.029 2.212-9.029 2.212l.043-.41c.978-10.124 9.485-18.767 19.778-20.134a25.05 25.05 0 012.905-.174c9.698 0 19.103 7.352 21.898 17.118l.07.253zm11.85 4.298l-.004-.138c-.044-.651-.168-1.704-.305-2.836a34.452 34.452 0 00-1.334-6.026c-4.681-14.766-17.212-24.295-31.924-24.295-1.468 0-2.985.093-4.481.297-18.867 2.428-31.681 19.527-29.186 38.927 2.27 17.563 16.4 29.595 33.597 29.595 1.451 0 2.962-.1 4.488-.284 9.165-1.164 17.218-5.003 23.251-12.468.34-.425.508-.968.445-1.455-.055-.432-.308-.843-.764-1.173-1.012-.728-4.625-2.48-6.59-3.417-.578-.29-1.045-.513-1.303-.642-.596-.307-1.023-.445-1.412-.445-.477 0-.93.244-1.37.78-3.89 4.52-8.812 6.896-13.84 7.556-.998.122-1.965.187-2.905.187-9.165 0-18.415-6.137-21.1-14.56l-.067-.22.197-.096c.476-.236 4.765-2.233 11.121-2.233.788 0 1.591.032 2.375.102 1.823.144 3.654.38 5.585.625 3.564.471 7.26.96 11.574.96a57.14 57.14 0 007.938-.564c10.491-2.022 14.653-4.964 14.686-4.99 1.481-.959 1.426-1.753 1.327-3.187m164.343-29.429c0-.881-.723-1.59-1.595-1.59h-8.683c-.864 0-1.58.709-1.58 1.59v61.736c0 .872.716 1.593 1.58 1.593h8.683c.872 0 1.595-.721 1.595-1.593V48.457m-5.929-23.609c-4.316 0-7.838 3.524-7.838 7.847 0 4.313 3.522 7.829 7.838 7.829 4.327 0 7.837-3.516 7.837-7.829 0-4.323-3.51-7.847-7.837-7.847M371.696 56.316c12.305 0 21.947 10.127 21.947 23.063 0 13.013-9.149 22.817-21.285 22.817-6.128 0-11.808-2.198-15.964-6.179-4.288-4.093-6.64-9.873-6.64-16.25 0-12.932 9.842-23.451 21.942-23.451m-.385 57.115c.548.023 1.117.045 1.67.045 8.92 0 17.21-3.444 23.371-9.651 6.247-6.328 9.677-15.005 9.677-24.446 0-19.506-15.017-34.788-34.193-34.788-15.604 0-28.776 10.275-32.804 25.56-.685 2.595-1.394 9.213-1.394 15.813v48.44c0 .883.709 1.602 1.592 1.602h8.612c.89 0 1.611-.728 1.611-1.615l-.007-30.514.452.44c4.23 4.109 12.075 8.676 21.413 9.114M216.962 56.316c12.294 0 21.94 10.127 21.94 23.063 0 13.013-9.146 22.817-21.292 22.817-6.143 0-11.797-2.198-15.95-6.179-4.295-4.093-6.658-9.873-6.658-16.25 0-12.932 9.85-23.451 21.96-23.451m-.382 57.115c.549.023 1.114.045 1.657.045 8.93 0 17.224-3.444 23.374-9.651 6.248-6.328 9.689-15.005 9.689-24.446 0-19.506-15.03-34.788-34.209-34.788-15.598 0-28.784 10.275-32.802 25.56-.698 2.595-1.396 9.213-1.396 15.813v48.44c0 .883.716 1.602 1.577 1.602h8.638c.886 0 1.607-.728 1.607-1.615l-.014-30.514.436.44c4.232 4.109 12.077 8.676 21.443 9.114m197.746-10.814c7.498 6.862 15.69 10.782 26.324 10.782h.337c18.356-.119 26.557-10.152 26.557-20.037 0-13.673-12.9-17.41-16.852-18.239-1.268-.247-2.587-.495-3.94-.764-3.194-.615-6.511-1.25-9.525-2.083-2.113-.58-9.002-2.875-9.002-8.026 0-5.67 6.293-8.727 12.204-8.727 4.966 0 9.106.836 14.404 4.973.414.326.995.7 1.704.7.524 0 1.026-.182 1.566-.568 1.467-1.081 4.151-3.345 5.924-5.118.418-.423.613-.886.588-1.37-.041-.752-.6-1.367-.886-1.604-7.085-5.62-13.903-7.92-23.517-7.945h-.07c-13.752 0-24.134 8.84-24.134 20.56 0 9.287 7.635 15.883 21.474 18.601l8.666 1.661c5.696 1.046 8.898 4.07 8.787 8.306-.102 4.128-5.165 8.403-13.483 8.403-6.79 0-12.771-2.651-17.782-7.199l-.073-.072c-.354-.32-.777-.712-1.346-.712-.398 0-.82.185-1.275.54-.522.424-6.31 5-6.927 5.647-.283.304-.416.625-.41.962.014.535.367 1.035.687 1.33" fill="#2151a1"/><path d="M134.748 134.75c-30.819 30.826-80.806 30.822-111.623 0-30.833-30.83-30.833-80.813 0-111.633 30.824-30.823 80.804-30.823 111.617.003 30.833 30.816 30.833 80.799.006 111.63" fill="#fff"/><path d="M140.382 39.101a51.274 51.274 0 012.29 15.145c0 17.006-8.362 31.96-21.08 41.33-22.113 16.287-54.344 16.309-98.847 30.332 13.432 16.054 33.616 26.272 56.188 26.272 40.455 0 73.248-32.793 73.248-73.246 0-14.685-4.347-28.357-11.799-39.833" fill="#2151a1"/><path d="M122.861 20.328c-12.24-9.2-27.446-14.642-43.926-14.642-40.453 0-73.245 32.8-73.245 73.248 0 16.282 5.312 31.32 14.296 43.48 49.263-14.345 88.161-52.988 102.875-102.086" fill="#eb1933"/></svg>